<?xml version="1.0" encoding="UTF-8"?>
<!DOCTYPE svg PUBLIC "-//W3C//DTD SVG 1.1//EN" "http://www.w3.org/Graphics/SVG/1.1/DTD/svg11.dtd">
<svg xmlns="http://www.w3.org/2000/svg" version="1.1" width="256px" height="256px" style="shape-rendering:geometricPrecision; text-rendering:geometricPrecision; image-rendering:optimizeQuality; fill-rule:evenodd; clip-rule:evenodd" xmlns:xlink="http://www.w3.org/1999/xlink">
<g><path style="opacity:1" fill="#84aecd" d="M -0.5,-0.5 C 15.5,-0.5 31.5,-0.5 47.5,-0.5C 47.5,4.83333 47.5,10.1667 47.5,15.5C 42.1667,15.5 36.8333,15.5 31.5,15.5C 31.5,20.8333 31.5,26.1667 31.5,31.5C 26.1667,31.5 20.8333,31.5 15.5,31.5C 15.5,36.8333 15.5,42.1667 15.5,47.5C 10.1667,47.5 4.83333,47.5 -0.5,47.5C -0.5,31.5 -0.5,15.5 -0.5,-0.5 Z"/></g>
<g><path style="opacity:1" fill="#5abaef" d="M 47.5,-0.5 C 52.8333,-0.5 58.1667,-0.5 63.5,-0.5C 63.5,4.83333 63.5,10.1667 63.5,15.5C 58.1667,15.5 52.8333,15.5 47.5,15.5C 47.5,10.1667 47.5,4.83333 47.5,-0.5 Z"/></g>
<g><path style="opacity:1" fill="#84aecd" d="M 63.5,-0.5 C 79.5,-0.5 95.5,-0.5 111.5,-0.5C 111.5,4.83333 111.5,10.1667 111.5,15.5C 106.167,15.5 100.833,15.5 95.5,15.5C 95.5,20.8333 95.5,26.1667 95.5,31.5C 79.5,31.5 63.5,31.5 47.5,31.5C 47.5,26.1667 47.5,20.8333 47.5,15.5C 52.8333,15.5 58.1667,15.5 63.5,15.5C 63.5,10.1667 63.5,4.83333 63.5,-0.5 Z"/></g>
<g><path style="opacity:1" fill="#5abaef" d="M 111.5,-0.5 C 116.833,-0.5 122.167,-0.5 127.5,-0.5C 127.5,4.83333 127.5,10.1667 127.5,15.5C 122.167,15.5 116.833,15.5 111.5,15.5C 111.5,10.1667 111.5,4.83333 111.5,-0.5 Z"/></g>
<g><path style="opacity:1" fill="#84aecd" d="M 127.5,-0.5 C 143.5,-0.5 159.5,-0.5 175.5,-0.5C 175.5,4.83333 175.5,10.1667 175.5,15.5C 170.167,15.5 164.833,15.5 159.5,15.5C 159.5,20.8333 159.5,26.1667 159.5,31.5C 143.5,31.5 127.5,31.5 111.5,31.5C 111.5,26.1667 111.5,20.8333 111.5,15.5C 116.833,15.5 122.167,15.5 127.5,15.5C 127.5,10.1667 127.5,4.83333 127.5,-0.5 Z"/></g>
<g><path style="opacity:1" fill="#5abaef" d="M 175.5,-0.5 C 180.833,-0.5 186.167,-0.5 191.5,-0.5C 191.5,4.83333 191.5,10.1667 191.5,15.5C 186.167,15.5 180.833,15.5 175.5,15.5C 175.5,10.1667 175.5,4.83333 175.5,-0.5 Z"/></g>
<g><path style="opacity:1" fill="#84aecd" d="M 191.5,-0.5 C 207.5,-0.5 223.5,-0.5 239.5,-0.5C 239.5,4.83333 239.5,10.1667 239.5,15.5C 234.167,15.5 228.833,15.5 223.5,15.5C 223.5,20.8333 223.5,26.1667 223.5,31.5C 207.5,31.5 191.5,31.5 175.5,31.5C 175.5,26.1667 175.5,20.8333 175.5,15.5C 180.833,15.5 186.167,15.5 191.5,15.5C 191.5,10.1667 191.5,4.83333 191.5,-0.5 Z"/></g>
<g><path style="opacity:1" fill="#5abaef" d="M 239.5,-0.5 C 244.833,-0.5 250.167,-0.5 255.5,-0.5C 255.5,4.83333 255.5,10.1667 255.5,15.5C 250.167,15.5 244.833,15.5 239.5,15.5C 239.5,10.1667 239.5,4.83333 239.5,-0.5 Z"/></g>
<g><path style="opacity:1" fill="#5abaef" d="M 47.5,15.5 C 47.5,20.8333 47.5,26.1667 47.5,31.5C 42.1667,31.5 36.8333,31.5 31.5,31.5C 31.5,26.1667 31.5,20.8333 31.5,15.5C 36.8333,15.5 42.1667,15.5 47.5,15.5 Z"/></g>
<g><path style="opacity:1" fill="#5abaef" d="M 111.5,15.5 C 111.5,20.8333 111.5,26.1667 111.5,31.5C 106.167,31.5 100.833,31.5 95.5,31.5C 95.5,26.1667 95.5,20.8333 95.5,15.5C 100.833,15.5 106.167,15.5 111.5,15.5 Z"/></g>
<g><path style="opacity:1" fill="#5abaef" d="M 175.5,15.5 C 175.5,20.8333 175.5,26.1667 175.5,31.5C 170.167,31.5 164.833,31.5 159.5,31.5C 159.5,26.1667 159.5,20.8333 159.5,15.5C 164.833,15.5 170.167,15.5 175.5,15.5 Z"/></g>
<g><path style="opacity:1" fill="#5abaef" d="M 239.5,15.5 C 239.5,20.8333 239.5,26.1667 239.5,31.5C 234.167,31.5 228.833,31.5 223.5,31.5C 223.5,26.1667 223.5,20.8333 223.5,15.5C 228.833,15.5 234.167,15.5 239.5,15.5 Z"/></g>
<g><path style="opacity:1" fill="#84aecd" d="M 239.5,15.5 C 244.833,15.5 250.167,15.5 255.5,15.5C 255.5,31.5 255.5,47.5 255.5,63.5C 250.167,63.5 244.833,63.5 239.5,63.5C 239.5,52.8333 239.5,42.1667 239.5,31.5C 239.5,26.1667 239.5,20.8333 239.5,15.5 Z"/></g>
<g><path style="opacity:1" fill="#213c4a" d="M 31.5,31.5 C 36.8333,31.5 42.1667,31.5 47.5,31.5C 63.5,31.5 79.5,31.5 95.5,31.5C 100.833,31.5 106.167,31.5 111.5,31.5C 127.5,31.5 143.5,31.5 159.5,31.5C 164.833,31.5 170.167,31.5 175.5,31.5C 191.5,31.5 207.5,31.5 223.5,31.5C 228.833,31.5 234.167,31.5 239.5,31.5C 239.5,42.1667 239.5,52.8333 239.5,63.5C 239.5,68.8333 239.5,74.1667 239.5,79.5C 239.5,95.5 239.5,111.5 239.5,127.5C 239.5,132.833 239.5,138.167 239.5,143.5C 239.5,154.167 239.5,164.833 239.5,175.5C 228.833,175.5 218.167,175.5 207.5,175.5C 202.167,175.5 196.833,175.5 191.5,175.5C 175.5,175.5 159.5,175.5 143.5,175.5C 143.5,186.167 143.5,196.833 143.5,207.5C 154.167,207.5 164.833,207.5 175.5,207.5C 180.833,207.5 186.167,207.5 191.5,207.5C 196.833,207.5 202.167,207.5 207.5,207.5C 207.5,212.833 207.5,218.167 207.5,223.5C 191.5,223.5 175.5,223.5 159.5,223.5C 154.167,223.5 148.833,223.5 143.5,223.5C 127.5,223.5 111.5,223.5 95.5,223.5C 90.1667,223.5 84.8333,223.5 79.5,223.5C 68.8333,223.5 58.1667,223.5 47.5,223.5C 47.5,218.167 47.5,212.833 47.5,207.5C 52.8333,207.5 58.1667,207.5 63.5,207.5C 79.5,207.5 95.5,207.5 111.5,207.5C 111.5,196.833 111.5,186.167 111.5,175.5C 100.833,175.5 90.1667,175.5 79.5,175.5C 74.1667,175.5 68.8333,175.5 63.5,175.5C 47.5,175.5 31.5,175.5 15.5,175.5C 15.5,159.5 15.5,143.5 15.5,127.5C 15.5,122.167 15.5,116.833 15.5,111.5C 15.5,95.5 15.5,79.5 15.5,63.5C 15.5,58.1667 15.5,52.8333 15.5,47.5C 15.5,42.1667 15.5,36.8333 15.5,31.5C 20.8333,31.5 26.1667,31.5 31.5,31.5 Z"/></g>
<g><path style="opacity:1" fill="#5abaef" d="M -0.5,47.5 C 4.83333,47.5 10.1667,47.5 15.5,47.5C 15.5,52.8333 15.5,58.1667 15.5,63.5C 10.1667,63.5 4.83333,63.5 -0.5,63.5C -0.5,58.1667 -0.5,52.8333 -0.5,47.5 Z"/></g>
<g><path style="opacity:1" fill="#392bad" d="M 47.5,47.5 C 47.5,52.8333 47.5,58.1667 47.5,63.5C 42.1667,63.5 36.8333,63.5 31.5,63.5C 31.5,58.1667 31.5,52.8333 31.5,47.5C 36.8333,47.5 42.1667,47.5 47.5,47.5 Z"/></g>
<g><path style="opacity:1" fill="#0037de" d="M 47.5,47.5 C 52.8333,47.5 58.1667,47.5 63.5,47.5C 63.5,52.8333 63.5,58.1667 63.5,63.5C 58.1667,63.5 52.8333,63.5 47.5,63.5C 47.5,58.1667 47.5,52.8333 47.5,47.5 Z"/></g>
<g><path style="opacity:1" fill="#392bad" d="M 63.5,47.5 C 68.8333,47.5 74.1667,47.5 79.5,47.5C 79.5,52.8333 79.5,58.1667 79.5,63.5C 74.1667,63.5 68.8333,63.5 63.5,63.5C 63.5,58.1667 63.5,52.8333 63.5,47.5 Z"/></g>
<g><path style="opacity:1" fill="#0037de" d="M 79.5,47.5 C 84.8333,47.5 90.1667,47.5 95.5,47.5C 95.5,52.8333 95.5,58.1667 95.5,63.5C 90.1667,63.5 84.8333,63.5 79.5,63.5C 79.5,58.1667 79.5,52.8333 79.5,47.5 Z"/></g>
<g><path style="opacity:1" fill="#392bad" d="M 95.5,47.5 C 100.833,47.5 106.167,47.5 111.5,47.5C 111.5,52.8333 111.5,58.1667 111.5,63.5C 106.167,63.5 100.833,63.5 95.5,63.5C 95.5,58.1667 95.5,52.8333 95.5,47.5 Z"/></g>
<g><path style="opacity:1" fill="#0037de" d="M 111.5,47.5 C 116.833,47.5 122.167,47.5 127.5,47.5C 127.5,52.8333 127.5,58.1667 127.5,63.5C 122.167,63.5 116.833,63.5 111.5,63.5C 111.5,58.1667 111.5,52.8333 111.5,47.5 Z"/></g>
<g><path style="opacity:1" fill="#392bad" d="M 127.5,47.5 C 132.833,47.5 138.167,47.5 143.5,47.5C 143.5,52.8333 143.5,58.1667 143.5,63.5C 138.167,63.5 132.833,63.5 127.5,63.5C 127.5,58.1667 127.5,52.8333 127.5,47.5 Z"/></g>
<g><path style="opacity:1" fill="#0037de" d="M 143.5,47.5 C 148.833,47.5 154.167,47.5 159.5,47.5C 159.5,52.8333 159.5,58.1667 159.5,63.5C 154.167,63.5 148.833,63.5 143.5,63.5C 143.5,58.1667 143.5,52.8333 143.5,47.5 Z"/></g>
<g><path style="opacity:1" fill="#392bad" d="M 159.5,47.5 C 164.833,47.5 170.167,47.5 175.5,47.5C 175.5,52.8333 175.5,58.1667 175.5,63.5C 170.167,63.5 164.833,63.5 159.5,63.5C 159.5,58.1667 159.5,52.8333 159.5,47.5 Z"/></g>
<g><path style="opacity:1" fill="#0037de" d="M 175.5,47.5 C 180.833,47.5 186.167,47.5 191.5,47.5C 191.5,52.8333 191.5,58.1667 191.5,63.5C 186.167,63.5 180.833,63.5 175.5,63.5C 175.5,58.1667 175.5,52.8333 175.5,47.5 Z"/></g>
<g><path style="opacity:1" fill="#392bad" d="M 191.5,47.5 C 196.833,47.5 202.167,47.5 207.5,47.5C 207.5,52.8333 207.5,58.1667 207.5,63.5C 202.167,63.5 196.833,63.5 191.5,63.5C 191.5,58.1667 191.5,52.8333 191.5,47.5 Z"/></g>
<g><path style="opacity:1" fill="#0037de" d="M 207.5,47.5 C 212.833,47.5 218.167,47.5 223.5,47.5C 223.5,52.8333 223.5,58.1667 223.5,63.5C 218.167,63.5 212.833,63.5 207.5,63.5C 207.5,58.1667 207.5,52.8333 207.5,47.5 Z"/></g>
<g><path style="opacity:1" fill="#84aecd" d="M -0.5,63.5 C 4.83333,63.5 10.1667,63.5 15.5,63.5C 15.5,79.5 15.5,95.5 15.5,111.5C 10.1667,111.5 4.83333,111.5 -0.5,111.5C -0.5,95.5 -0.5,79.5 -0.5,63.5 Z"/></g>
<g><path style="opacity:1" fill="#0037de" d="M 31.5,63.5 C 36.8333,63.5 42.1667,63.5 47.5,63.5C 47.5,68.8333 47.5,74.1667 47.5,79.5C 42.1667,79.5 36.8333,79.5 31.5,79.5C 31.5,74.1667 31.5,68.8333 31.5,63.5 Z"/></g>
<g><path style="opacity:1" fill="#bcfffe" d="M 47.5,63.5 C 52.8333,63.5 58.1667,63.5 63.5,63.5C 68.8333,63.5 74.1667,63.5 79.5,63.5C 84.8333,63.5 90.1667,63.5 95.5,63.5C 100.833,63.5 106.167,63.5 111.5,63.5C 116.833,63.5 122.167,63.5 127.5,63.5C 127.5,68.8333 127.5,74.1667 127.5,79.5C 122.167,79.5 116.833,79.5 111.5,79.5C 106.167,79.5 100.833,79.5 95.5,79.5C 90.1667,79.5 84.8333,79.5 79.5,79.5C 74.1667,79.5 68.8333,79.5 63.5,79.5C 63.5,84.8333 63.5,90.1667 63.5,95.5C 68.8333,95.5 74.1667,95.5 79.5,95.5C 84.8333,95.5 90.1667,95.5 95.5,95.5C 100.833,95.5 106.167,95.5 111.5,95.5C 116.833,95.5 122.167,95.5 127.5,95.5C 127.5,100.833 127.5,106.167 127.5,111.5C 127.5,116.833 127.5,122.167 127.5,127.5C 127.5,132.833 127.5,138.167 127.5,143.5C 122.167,143.5 116.833,143.5 111.5,143.5C 106.167,143.5 100.833,143.5 95.5,143.5C 90.1667,143.5 84.8333,143.5 79.5,143.5C 74.1667,143.5 68.8333,143.5 63.5,143.5C 58.1667,143.5 52.8333,143.5 47.5,143.5C 47.5,138.167 47.5,132.833 47.5,127.5C 52.8333,127.5 58.1667,127.5 63.5,127.5C 68.8333,127.5 74.1667,127.5 79.5,127.5C 84.8333,127.5 90.1667,127.5 95.5,127.5C 100.833,127.5 106.167,127.5 111.5,127.5C 111.5,122.167 111.5,116.833 111.5,111.5C 106.167,111.5 100.833,111.5 95.5,111.5C 90.1667,111.5 84.8333,111.5 79.5,111.5C 74.1667,111.5 68.8333,111.5 63.5,111.5C 58.1667,111.5 52.8333,111.5 47.5,111.5C 47.5,106.167 47.5,100.833 47.5,95.5C 47.5,90.1667 47.5,84.8333 47.5,79.5C 47.5,74.1667 47.5,68.8333 47.5,63.5 Z"/></g>
<g><path style="opacity:1" fill="#0037de" d="M 127.5,63.5 C 132.833,63.5 138.167,63.5 143.5,63.5C 143.5,68.8333 143.5,74.1667 143.5,79.5C 138.167,79.5 132.833,79.5 127.5,79.5C 127.5,74.1667 127.5,68.8333 127.5,63.5 Z"/></g>
<g><path style="opacity:1" fill="#bcfffe" d="M 143.5,63.5 C 148.833,63.5 154.167,63.5 159.5,63.5C 164.833,63.5 170.167,63.5 175.5,63.5C 180.833,63.5 186.167,63.5 191.5,63.5C 196.833,63.5 202.167,63.5 207.5,63.5C 207.5,68.8333 207.5,74.1667 207.5,79.5C 202.167,79.5 196.833,79.5 191.5,79.5C 186.167,79.5 180.833,79.5 175.5,79.5C 170.167,79.5 164.833,79.5 159.5,79.5C 159.5,84.8333 159.5,90.1667 159.5,95.5C 159.5,100.833 159.5,106.167 159.5,111.5C 159.5,116.833 159.5,122.167 159.5,127.5C 164.833,127.5 170.167,127.5 175.5,127.5C 180.833,127.5 186.167,127.5 191.5,127.5C 196.833,127.5 202.167,127.5 207.5,127.5C 207.5,132.833 207.5,138.167 207.5,143.5C 202.167,143.5 196.833,143.5 191.5,143.5C 186.167,143.5 180.833,143.5 175.5,143.5C 170.167,143.5 164.833,143.5 159.5,143.5C 154.167,143.5 148.833,143.5 143.5,143.5C 143.5,138.167 143.5,132.833 143.5,127.5C 143.5,122.167 143.5,116.833 143.5,111.5C 143.5,106.167 143.5,100.833 143.5,95.5C 143.5,90.1667 143.5,84.8333 143.5,79.5C 143.5,74.1667 143.5,68.8333 143.5,63.5 Z"/></g>
<g><path style="opacity:1" fill="#392bad" d="M 207.5,63.5 C 212.833,63.5 218.167,63.5 223.5,63.5C 223.5,68.8333 223.5,74.1667 223.5,79.5C 218.167,79.5 212.833,79.5 207.5,79.5C 207.5,74.1667 207.5,68.8333 207.5,63.5 Z"/></g>
<g><path style="opacity:1" fill="#5abaef" d="M 239.5,63.5 C 244.833,63.5 250.167,63.5 255.5,63.5C 255.5,68.8333 255.5,74.1667 255.5,79.5C 250.167,79.5 244.833,79.5 239.5,79.5C 239.5,74.1667 239.5,68.8333 239.5,63.5 Z"/></g>
<g><path style="opacity:1" fill="#392bad" d="M 31.5,79.5 C 36.8333,79.5 42.1667,79.5 47.5,79.5C 47.5,84.8333 47.5,90.1667 47.5,95.5C 42.1667,95.5 36.8333,95.5 31.5,95.5C 31.5,90.1667 31.5,84.8333 31.5,79.5 Z"/></g>
<g><path style="opacity:1" fill="#392bad" d="M 79.5,79.5 C 79.5,84.8333 79.5,90.1667 79.5,95.5C 74.1667,95.5 68.8333,95.5 63.5,95.5C 63.5,90.1667 63.5,84.8333 63.5,79.5C 68.8333,79.5 74.1667,79.5 79.5,79.5 Z"/></g>
<g><path style="opacity:1" fill="#0037de" d="M 79.5,79.5 C 84.8333,79.5 90.1667,79.5 95.5,79.5C 95.5,84.8333 95.5,90.1667 95.5,95.5C 90.1667,95.5 84.8333,95.5 79.5,95.5C 79.5,90.1667 79.5,84.8333 79.5,79.5 Z"/></g>
<g><path style="opacity:1" fill="#392bad" d="M 95.5,79.5 C 100.833,79.5 106.167,79.5 111.5,79.5C 111.5,84.8333 111.5,90.1667 111.5,95.5C 106.167,95.5 100.833,95.5 95.5,95.5C 95.5,90.1667 95.5,84.8333 95.5,79.5 Z"/></g>
<g><path style="opacity:1" fill="#0037de" d="M 111.5,79.5 C 116.833,79.5 122.167,79.5 127.5,79.5C 127.5,84.8333 127.5,90.1667 127.5,95.5C 122.167,95.5 116.833,95.5 111.5,95.5C 111.5,90.1667 111.5,84.8333 111.5,79.5 Z"/></g>
<g><path style="opacity:1" fill="#392bad" d="M 127.5,79.5 C 132.833,79.5 138.167,79.5 143.5,79.5C 143.5,84.8333 143.5,90.1667 143.5,95.5C 138.167,95.5 132.833,95.5 127.5,95.5C 127.5,90.1667 127.5,84.8333 127.5,79.5 Z"/></g>
<g><path style="opacity:1" fill="#392bad" d="M 175.5,79.5 C 175.5,84.8333 175.5,90.1667 175.5,95.5C 170.167,95.5 164.833,95.5 159.5,95.5C 159.5,90.1667 159.5,84.8333 159.5,79.5C 164.833,79.5 170.167,79.5 175.5,79.5 Z"/></g>
<g><path style="opacity:1" fill="#0037de" d="M 175.5,79.5 C 180.833,79.5 186.167,79.5 191.5,79.5C 191.5,84.8333 191.5,90.1667 191.5,95.5C 186.167,95.5 180.833,95.5 175.5,95.5C 175.5,90.1667 175.5,84.8333 175.5,79.5 Z"/></g>
<g><path style="opacity:1" fill="#392bad" d="M 191.5,79.5 C 196.833,79.5 202.167,79.5 207.5,79.5C 207.5,84.8333 207.5,90.1667 207.5,95.5C 202.167,95.5 196.833,95.5 191.5,95.5C 191.5,90.1667 191.5,84.8333 191.5,79.5 Z"/></g>
<g><path style="opacity:1" fill="#0037de" d="M 207.5,79.5 C 212.833,79.5 218.167,79.5 223.5,79.5C 223.5,84.8333 223.5,90.1667 223.5,95.5C 218.167,95.5 212.833,95.5 207.5,95.5C 207.5,90.1667 207.5,84.8333 207.5,79.5 Z"/></g>
<g><path style="opacity:1" fill="#84aecd" d="M 239.5,79.5 C 244.833,79.5 250.167,79.5 255.5,79.5C 255.5,95.5 255.5,111.5 255.5,127.5C 250.167,127.5 244.833,127.5 239.5,127.5C 239.5,111.5 239.5,95.5 239.5,79.5 Z"/></g>
<g><path style="opacity:1" fill="#0037de" d="M 31.5,95.5 C 36.8333,95.5 42.1667,95.5 47.5,95.5C 47.5,100.833 47.5,106.167 47.5,111.5C 42.1667,111.5 36.8333,111.5 31.5,111.5C 31.5,106.167 31.5,100.833 31.5,95.5 Z"/></g>
<g><path style="opacity:1" fill="#0037de" d="M 127.5,95.5 C 132.833,95.5 138.167,95.5 143.5,95.5C 143.5,100.833 143.5,106.167 143.5,111.5C 138.167,111.5 132.833,111.5 127.5,111.5C 127.5,106.167 127.5,100.833 127.5,95.5 Z"/></g>
<g><path style="opacity:1" fill="#0037de" d="M 159.5,95.5 C 164.833,95.5 170.167,95.5 175.5,95.5C 175.5,100.833 175.5,106.167 175.5,111.5C 170.167,111.5 164.833,111.5 159.5,111.5C 159.5,106.167 159.5,100.833 159.5,95.5 Z"/></g>
<g><path style="opacity:1" fill="#392bad" d="M 175.5,95.5 C 180.833,95.5 186.167,95.5 191.5,95.5C 191.5,100.833 191.5,106.167 191.5,111.5C 186.167,111.5 180.833,111.5 175.5,111.5C 175.5,106.167 175.5,100.833 175.5,95.5 Z"/></g>
<g><path style="opacity:1" fill="#0037de" d="M 191.5,95.5 C 196.833,95.5 202.167,95.5 207.5,95.5C 207.5,100.833 207.5,106.167 207.5,111.5C 202.167,111.5 196.833,111.5 191.5,111.5C 191.5,106.167 191.5,100.833 191.5,95.5 Z"/></g>
<g><path style="opacity:1" fill="#392bad" d="M 207.5,95.5 C 212.833,95.5 218.167,95.5 223.5,95.5C 223.5,100.833 223.5,106.167 223.5,111.5C 218.167,111.5 212.833,111.5 207.5,111.5C 207.5,106.167 207.5,100.833 207.5,95.5 Z"/></g>
<g><path style="opacity:1" fill="#5abaef" d="M -0.5,111.5 C 4.83333,111.5 10.1667,111.5 15.5,111.5C 15.5,116.833 15.5,122.167 15.5,127.5C 10.1667,127.5 4.83333,127.5 -0.5,127.5C -0.5,122.167 -0.5,116.833 -0.5,111.5 Z"/></g>
<g><path style="opacity:1" fill="#392bad" d="M 31.5,111.5 C 36.8333,111.5 42.1667,111.5 47.5,111.5C 47.5,116.833 47.5,122.167 47.5,127.5C 42.1667,127.5 36.8333,127.5 31.5,127.5C 31.5,122.167 31.5,116.833 31.5,111.5 Z"/></g>
<g><path style="opacity:1" fill="#0037de" d="M 47.5,111.5 C 52.8333,111.5 58.1667,111.5 63.5,111.5C 63.5,116.833 63.5,122.167 63.5,127.5C 58.1667,127.5 52.8333,127.5 47.5,127.5C 47.5,122.167 47.5,116.833 47.5,111.5 Z"/></g>
<g><path style="opacity:1" fill="#392bad" d="M 63.5,111.5 C 68.8333,111.5 74.1667,111.5 79.5,111.5C 79.5,116.833 79.5,122.167 79.5,127.5C 74.1667,127.5 68.8333,127.5 63.5,127.5C 63.5,122.167 63.5,116.833 63.5,111.5 Z"/></g>
<g><path style="opacity:1" fill="#0037de" d="M 79.5,111.5 C 84.8333,111.5 90.1667,111.5 95.5,111.5C 95.5,116.833 95.5,122.167 95.5,127.5C 90.1667,127.5 84.8333,127.5 79.5,127.5C 79.5,122.167 79.5,116.833 79.5,111.5 Z"/></g>
<g><path style="opacity:1" fill="#392bad" d="M 95.5,111.5 C 100.833,111.5 106.167,111.5 111.5,111.5C 111.5,116.833 111.5,122.167 111.5,127.5C 106.167,127.5 100.833,127.5 95.5,127.5C 95.5,122.167 95.5,116.833 95.5,111.5 Z"/></g>
<g><path style="opacity:1" fill="#392bad" d="M 127.5,111.5 C 132.833,111.5 138.167,111.5 143.5,111.5C 143.5,116.833 143.5,122.167 143.5,127.5C 138.167,127.5 132.833,127.5 127.5,127.5C 127.5,122.167 127.5,116.833 127.5,111.5 Z"/></g>
<g><path style="opacity:1" fill="#392bad" d="M 159.5,111.5 C 164.833,111.5 170.167,111.5 175.5,111.5C 175.5,116.833 175.5,122.167 175.5,127.5C 170.167,127.5 164.833,127.5 159.5,127.5C 159.5,122.167 159.5,116.833 159.5,111.5 Z"/></g>
<g><path style="opacity:1" fill="#0037de" d="M 175.5,111.5 C 180.833,111.5 186.167,111.5 191.5,111.5C 191.5,116.833 191.5,122.167 191.5,127.5C 186.167,127.5 180.833,127.5 175.5,127.5C 175.5,122.167 175.5,116.833 175.5,111.5 Z"/></g>
<g><path style="opacity:1" fill="#392bad" d="M 191.5,111.5 C 196.833,111.5 202.167,111.5 207.5,111.5C 207.5,116.833 207.5,122.167 207.5,127.5C 202.167,127.5 196.833,127.5 191.5,127.5C 191.5,122.167 191.5,116.833 191.5,111.5 Z"/></g>
<g><path style="opacity:1" fill="#0037de" d="M 207.5,111.5 C 212.833,111.5 218.167,111.5 223.5,111.5C 223.5,116.833 223.5,122.167 223.5,127.5C 218.167,127.5 212.833,127.5 207.5,127.5C 207.5,122.167 207.5,116.833 207.5,111.5 Z"/></g>
<g><path style="opacity:1" fill="#84aecd" d="M -0.5,127.5 C 4.83333,127.5 10.1667,127.5 15.5,127.5C 15.5,143.5 15.5,159.5 15.5,175.5C 10.1667,175.5 4.83333,175.5 -0.5,175.5C -0.5,159.5 -0.5,143.5 -0.5,127.5 Z"/></g>
<g><path style="opacity:1" fill="#0037de" d="M 31.5,127.5 C 36.8333,127.5 42.1667,127.5 47.5,127.5C 47.5,132.833 47.5,138.167 47.5,143.5C 42.1667,143.5 36.8333,143.5 31.5,143.5C 31.5,138.167 31.5,132.833 31.5,127.5 Z"/></g>
<g><path style="opacity:1" fill="#0037de" d="M 127.5,127.5 C 132.833,127.5 138.167,127.5 143.5,127.5C 143.5,132.833 143.5,138.167 143.5,143.5C 138.167,143.5 132.833,143.5 127.5,143.5C 127.5,138.167 127.5,132.833 127.5,127.5 Z"/></g>
<g><path style="opacity:1" fill="#392bad" d="M 207.5,127.5 C 212.833,127.5 218.167,127.5 223.5,127.5C 223.5,132.833 223.5,138.167 223.5,143.5C 218.167,143.5 212.833,143.5 207.5,143.5C 207.5,138.167 207.5,132.833 207.5,127.5 Z"/></g>
<g><path style="opacity:1" fill="#5abaef" d="M 239.5,127.5 C 244.833,127.5 250.167,127.5 255.5,127.5C 255.5,132.833 255.5,138.167 255.5,143.5C 250.167,143.5 244.833,143.5 239.5,143.5C 239.5,138.167 239.5,132.833 239.5,127.5 Z"/></g>
<g><path style="opacity:1" fill="#392bad" d="M 31.5,143.5 C 36.8333,143.5 42.1667,143.5 47.5,143.5C 47.5,148.833 47.5,154.167 47.5,159.5C 42.1667,159.5 36.8333,159.5 31.5,159.5C 31.5,154.167 31.5,148.833 31.5,143.5 Z"/></g>
<g><path style="opacity:1" fill="#0037de" d="M 47.5,143.5 C 52.8333,143.5 58.1667,143.5 63.5,143.5C 63.5,148.833 63.5,154.167 63.5,159.5C 58.1667,159.5 52.8333,159.5 47.5,159.5C 47.5,154.167 47.5,148.833 47.5,143.5 Z"/></g>
<g><path style="opacity:1" fill="#392bad" d="M 63.5,143.5 C 68.8333,143.5 74.1667,143.5 79.5,143.5C 79.5,148.833 79.5,154.167 79.5,159.5C 74.1667,159.5 68.8333,159.5 63.5,159.5C 63.5,154.167 63.5,148.833 63.5,143.5 Z"/></g>
<g><path style="opacity:1" fill="#0037de" d="M 79.5,143.5 C 84.8333,143.5 90.1667,143.5 95.5,143.5C 95.5,148.833 95.5,154.167 95.5,159.5C 90.1667,159.5 84.8333,159.5 79.5,159.5C 79.5,154.167 79.5,148.833 79.5,143.5 Z"/></g>
<g><path style="opacity:1" fill="#392bad" d="M 95.5,143.5 C 100.833,143.5 106.167,143.5 111.5,143.5C 111.5,148.833 111.5,154.167 111.5,159.5C 106.167,159.5 100.833,159.5 95.5,159.5C 95.5,154.167 95.5,148.833 95.5,143.5 Z"/></g>
<g><path style="opacity:1" fill="#0037de" d="M 111.5,143.5 C 116.833,143.5 122.167,143.5 127.5,143.5C 127.5,148.833 127.5,154.167 127.5,159.5C 122.167,159.5 116.833,159.5 111.5,159.5C 111.5,154.167 111.5,148.833 111.5,143.5 Z"/></g>
<g><path style="opacity:1" fill="#392bad" d="M 127.5,143.5 C 132.833,143.5 138.167,143.5 143.5,143.5C 143.5,148.833 143.5,154.167 143.5,159.5C 138.167,159.5 132.833,159.5 127.5,159.5C 127.5,154.167 127.5,148.833 127.5,143.5 Z"/></g>
<g><path style="opacity:1" fill="#0037de" d="M 143.5,143.5 C 148.833,143.5 154.167,143.5 159.5,143.5C 159.5,148.833 159.5,154.167 159.5,159.5C 154.167,159.5 148.833,159.5 143.5,159.5C 143.5,154.167 143.5,148.833 143.5,143.5 Z"/></g>
<g><path style="opacity:1" fill="#392bad" d="M 159.5,143.5 C 164.833,143.5 170.167,143.5 175.5,143.5C 175.5,148.833 175.5,154.167 175.5,159.5C 170.167,159.5 164.833,159.5 159.5,159.5C 159.5,154.167 159.5,148.833 159.5,143.5 Z"/></g>
<g><path style="opacity:1" fill="#0037de" d="M 175.5,143.5 C 180.833,143.5 186.167,143.5 191.5,143.5C 191.5,148.833 191.5,154.167 191.5,159.5C 186.167,159.5 180.833,159.5 175.5,159.5C 175.5,154.167 175.5,148.833 175.5,143.5 Z"/></g>
<g><path style="opacity:1" fill="#392bad" d="M 191.5,143.5 C 196.833,143.5 202.167,143.5 207.5,143.5C 207.5,148.833 207.5,154.167 207.5,159.5C 202.167,159.5 196.833,159.5 191.5,159.5C 191.5,154.167 191.5,148.833 191.5,143.5 Z"/></g>
<g><path style="opacity:1" fill="#0037de" d="M 207.5,143.5 C 212.833,143.5 218.167,143.5 223.5,143.5C 223.5,148.833 223.5,154.167 223.5,159.5C 218.167,159.5 212.833,159.5 207.5,159.5C 207.5,154.167 207.5,148.833 207.5,143.5 Z"/></g>
<g><path style="opacity:1" fill="#84aecd" d="M 239.5,143.5 C 244.833,143.5 250.167,143.5 255.5,143.5C 255.5,159.5 255.5,175.5 255.5,191.5C 250.167,191.5 244.833,191.5 239.5,191.5C 239.5,196.833 239.5,202.167 239.5,207.5C 234.167,207.5 228.833,207.5 223.5,207.5C 223.5,212.833 223.5,218.167 223.5,223.5C 218.167,223.5 212.833,223.5 207.5,223.5C 207.5,218.167 207.5,212.833 207.5,207.5C 202.167,207.5 196.833,207.5 191.5,207.5C 191.5,202.167 191.5,196.833 191.5,191.5C 196.833,191.5 202.167,191.5 207.5,191.5C 207.5,186.167 207.5,180.833 207.5,175.5C 218.167,175.5 228.833,175.5 239.5,175.5C 239.5,164.833 239.5,154.167 239.5,143.5 Z"/></g>
<g><path style="opacity:1" fill="#5abaef" d="M -0.5,175.5 C 4.83333,175.5 10.1667,175.5 15.5,175.5C 15.5,180.833 15.5,186.167 15.5,191.5C 10.1667,191.5 4.83333,191.5 -0.5,191.5C -0.5,186.167 -0.5,180.833 -0.5,175.5 Z"/></g>
<g><path style="opacity:1" fill="#84aecd" d="M 15.5,175.5 C 31.5,175.5 47.5,175.5 63.5,175.5C 63.5,180.833 63.5,186.167 63.5,191.5C 58.1667,191.5 52.8333,191.5 47.5,191.5C 47.5,196.833 47.5,202.167 47.5,207.5C 42.1667,207.5 36.8333,207.5 31.5,207.5C 31.5,212.833 31.5,218.167 31.5,223.5C 26.1667,223.5 20.8333,223.5 15.5,223.5C 15.5,228.833 15.5,234.167 15.5,239.5C 10.1667,239.5 4.83333,239.5 -0.5,239.5C -0.5,223.5 -0.5,207.5 -0.5,191.5C 4.83333,191.5 10.1667,191.5 15.5,191.5C 15.5,186.167 15.5,180.833 15.5,175.5 Z"/></g>
<g><path style="opacity:1" fill="#5abaef" d="M 63.5,175.5 C 68.8333,175.5 74.1667,175.5 79.5,175.5C 79.5,180.833 79.5,186.167 79.5,191.5C 74.1667,191.5 68.8333,191.5 63.5,191.5C 63.5,186.167 63.5,180.833 63.5,175.5 Z"/></g>
<g><path style="opacity:1" fill="#84aecd" d="M 79.5,175.5 C 90.1667,175.5 100.833,175.5 111.5,175.5C 111.5,186.167 111.5,196.833 111.5,207.5C 95.5,207.5 79.5,207.5 63.5,207.5C 63.5,202.167 63.5,196.833 63.5,191.5C 68.8333,191.5 74.1667,191.5 79.5,191.5C 79.5,186.167 79.5,180.833 79.5,175.5 Z"/></g>
<g><path style="opacity:1" fill="#84aecd" d="M 191.5,175.5 C 191.5,180.833 191.5,186.167 191.5,191.5C 186.167,191.5 180.833,191.5 175.5,191.5C 175.5,196.833 175.5,202.167 175.5,207.5C 164.833,207.5 154.167,207.5 143.5,207.5C 143.5,196.833 143.5,186.167 143.5,175.5C 159.5,175.5 175.5,175.5 191.5,175.5 Z"/></g>
<g><path style="opacity:1" fill="#5abaef" d="M 191.5,175.5 C 196.833,175.5 202.167,175.5 207.5,175.5C 207.5,180.833 207.5,186.167 207.5,191.5C 202.167,191.5 196.833,191.5 191.5,191.5C 191.5,186.167 191.5,180.833 191.5,175.5 Z"/></g>
<g><path style="opacity:1" fill="#5abaef" d="M 63.5,191.5 C 63.5,196.833 63.5,202.167 63.5,207.5C 58.1667,207.5 52.8333,207.5 47.5,207.5C 47.5,202.167 47.5,196.833 47.5,191.5C 52.8333,191.5 58.1667,191.5 63.5,191.5 Z"/></g>
<g><path style="opacity:1" fill="#5abaef" d="M 191.5,191.5 C 191.5,196.833 191.5,202.167 191.5,207.5C 186.167,207.5 180.833,207.5 175.5,207.5C 175.5,202.167 175.5,196.833 175.5,191.5C 180.833,191.5 186.167,191.5 191.5,191.5 Z"/></g>
<g><path style="opacity:1" fill="#5abaef" d="M 255.5,191.5 C 255.5,196.833 255.5,202.167 255.5,207.5C 250.167,207.5 244.833,207.5 239.5,207.5C 239.5,202.167 239.5,196.833 239.5,191.5C 244.833,191.5 250.167,191.5 255.5,191.5 Z"/></g>
<g><path style="opacity:1" fill="#5abaef" d="M 47.5,207.5 C 47.5,212.833 47.5,218.167 47.5,223.5C 42.1667,223.5 36.8333,223.5 31.5,223.5C 31.5,218.167 31.5,212.833 31.5,207.5C 36.8333,207.5 42.1667,207.5 47.5,207.5 Z"/></g>
<g><path style="opacity:1" fill="#5abaef" d="M 239.5,207.5 C 239.5,212.833 239.5,218.167 239.5,223.5C 234.167,223.5 228.833,223.5 223.5,223.5C 223.5,218.167 223.5,212.833 223.5,207.5C 228.833,207.5 234.167,207.5 239.5,207.5 Z"/></g>
<g><path style="opacity:1" fill="#84aecd" d="M 239.5,207.5 C 244.833,207.5 250.167,207.5 255.5,207.5C 255.5,223.5 255.5,239.5 255.5,255.5C 239.5,255.5 223.5,255.5 207.5,255.5C 207.5,250.167 207.5,244.833 207.5,239.5C 212.833,239.5 218.167,239.5 223.5,239.5C 223.5,234.167 223.5,228.833 223.5,223.5C 228.833,223.5 234.167,223.5 239.5,223.5C 239.5,218.167 239.5,212.833 239.5,207.5 Z"/></g>
<g><path style="opacity:1" fill="#5abaef" d="M 31.5,223.5 C 31.5,228.833 31.5,234.167 31.5,239.5C 26.1667,239.5 20.8333,239.5 15.5,239.5C 15.5,234.167 15.5,228.833 15.5,223.5C 20.8333,223.5 26.1667,223.5 31.5,223.5 Z"/></g>
<g><path style="opacity:1" fill="#84aecd" d="M 31.5,223.5 C 36.8333,223.5 42.1667,223.5 47.5,223.5C 58.1667,223.5 68.8333,223.5 79.5,223.5C 79.5,228.833 79.5,234.167 79.5,239.5C 74.1667,239.5 68.8333,239.5 63.5,239.5C 63.5,244.833 63.5,250.167 63.5,255.5C 47.5,255.5 31.5,255.5 15.5,255.5C 15.5,250.167 15.5,244.833 15.5,239.5C 20.8333,239.5 26.1667,239.5 31.5,239.5C 31.5,234.167 31.5,228.833 31.5,223.5 Z"/></g>
<g><path style="opacity:1" fill="#5abaef" d="M 79.5,223.5 C 84.8333,223.5 90.1667,223.5 95.5,223.5C 95.5,228.833 95.5,234.167 95.5,239.5C 90.1667,239.5 84.8333,239.5 79.5,239.5C 79.5,234.167 79.5,228.833 79.5,223.5 Z"/></g>
<g><path style="opacity:1" fill="#84aecd" d="M 95.5,223.5 C 111.5,223.5 127.5,223.5 143.5,223.5C 143.5,228.833 143.5,234.167 143.5,239.5C 138.167,239.5 132.833,239.5 127.5,239.5C 127.5,244.833 127.5,250.167 127.5,255.5C 111.5,255.5 95.5,255.5 79.5,255.5C 79.5,250.167 79.5,244.833 79.5,239.5C 84.8333,239.5 90.1667,239.5 95.5,239.5C 95.5,234.167 95.5,228.833 95.5,223.5 Z"/></g>
<g><path style="opacity:1" fill="#5abaef" d="M 143.5,223.5 C 148.833,223.5 154.167,223.5 159.5,223.5C 159.5,228.833 159.5,234.167 159.5,239.5C 154.167,239.5 148.833,239.5 143.5,239.5C 143.5,234.167 143.5,228.833 143.5,223.5 Z"/></g>
<g><path style="opacity:1" fill="#84aecd" d="M 159.5,223.5 C 175.5,223.5 191.5,223.5 207.5,223.5C 207.5,228.833 207.5,234.167 207.5,239.5C 202.167,239.5 196.833,239.5 191.5,239.5C 191.5,244.833 191.5,250.167 191.5,255.5C 175.5,255.5 159.5,255.5 143.5,255.5C 143.5,250.167 143.5,244.833 143.5,239.5C 148.833,239.5 154.167,239.5 159.5,239.5C 159.5,234.167 159.5,228.833 159.5,223.5 Z"/></g>
<g><path style="opacity:1" fill="#5abaef" d="M 207.5,223.5 C 212.833,223.5 218.167,223.5 223.5,223.5C 223.5,228.833 223.5,234.167 223.5,239.5C 218.167,239.5 212.833,239.5 207.5,239.5C 207.5,234.167 207.5,228.833 207.5,223.5 Z"/></g>
<g><path style="opacity:1" fill="#5abaef" d="M -0.5,239.5 C 4.83333,239.5 10.1667,239.5 15.5,239.5C 15.5,244.833 15.5,250.167 15.5,255.5C 10.1667,255.5 4.83333,255.5 -0.5,255.5C -0.5,250.167 -0.5,244.833 -0.5,239.5 Z"/></g>
<g><path style="opacity:1" fill="#5abaef" d="M 79.5,239.5 C 79.5,244.833 79.5,250.167 79.5,255.5C 74.1667,255.5 68.8333,255.5 63.5,255.5C 63.5,250.167 63.5,244.833 63.5,239.5C 68.8333,239.5 74.1667,239.5 79.5,239.5 Z"/></g>
<g><path style="opacity:1" fill="#5abaef" d="M 143.5,239.5 C 143.5,244.833 143.5,250.167 143.5,255.5C 138.167,255.5 132.833,255.5 127.5,255.5C 127.5,250.167 127.5,244.833 127.5,239.5C 132.833,239.5 138.167,239.5 143.5,239.5 Z"/></g>
<g><path style="opacity:1" fill="#5abaef" d="M 207.5,239.5 C 207.5,244.833 207.5,250.167 207.5,255.5C 202.167,255.5 196.833,255.5 191.5,255.5C 191.5,250.167 191.5,244.833 191.5,239.5C 196.833,239.5 202.167,239.5 207.5,239.5 Z"/></g>
</svg>
